<svg xmlns="http://www.w3.org/2000/svg" viewBox="0 0 82.71 71"><path fill="#fff" fill-rule="evenodd" d="M79.17,31.16a15.28,15.28,0,0,0-3.27-3.05,35.63,35.63,0,0,0-3.23-8.51,27.62,27.62,0,0,0-4.6-6.39c-.61-.63-1.24-1.23-1.89-1.82-.22-.2-.49-.42-.72-.64a4.25,4.25,0,0,0-1.46-3C57.78,2.31,49.47-.1,41.3,0,33.2-.1,24.88,2.31,18.7,7.75a4.31,4.31,0,0,0-1.49,3c-.23.22-.5.44-.72.64-.65.59-1.28,1.19-1.88,1.82A28.4,28.4,0,0,0,10,19.6a35.66,35.66,0,0,0-3.24,8.51,15.78,15.78,0,0,0-3.27,3.05l-.09.12A17.37,17.37,0,0,0,7,55.58a23.64,23.64,0,0,0,5.56,3.24c2.54,3.11,7.19,6.23,10.54,8C28.19,69.5,35.61,70.93,41.36,71c5.75-.09,13.17-1.52,18.26-4.2,3.38-1.8,8-4.89,10.53-8a23.61,23.61,0,0,0,5.51-3.17l.14-.1A17.37,17.37,0,0,0,79.17,31.16ZM68.74,56.83s-3,4.2-10.19,8-17.22,3.91-17.22,3.91-10,0-17.21-3.91-10.2-8-10.2-8S3.16,53.26,2.35,43.18,8.84,29.53,8.84,29.53s.32-3.46,3.16-8.87,6.77-8,7.2-8.69,0-1.62,1-2.48C26,4.39,33.75,2.2,41.33,2.29c7.59-.09,15.36,2.1,21.14,7.2,1,.86.56,1.79,1,2.48s4.34,3.28,7.17,8.69,3.17,8.87,3.17,8.87,7.32,3.57,6.51,13.65S68.74,56.83,68.74,56.83Z" transform="translate(0.02 0)"/><path fill="#fff" fill-rule="evenodd" d="M16.22,47c.25,1.66.72,4.71,1,5.94.31,1.72.52,2.07.75,2.33a22,22,0,0,0,7.54,5.53A38.5,38.5,0,0,0,37,63.92a1.47,1.47,0,0,1-1.18-1.21c-.2-1.32.84-1.87,2.31-1.84a75.84,75.84,0,0,0,11.17-.52c3.51-.6,5.26-1.76,5.72-2.84a55,55,0,0,1-7.15,1.81,8.32,8.32,0,0,1-2-1,3.82,3.82,0,0,0-1.47-.49H38.28a3.82,3.82,0,0,0-1.47.49,8.32,8.32,0,0,1-2,1,69.63,69.63,0,0,1-12.55-3.74c-3.14-1.53-3.6-3.69-4.15-5.42-.31-1-.72-2.38-1-3.41C16.24,43.84,15.92,45.07,16.22,47Z" transform="translate(0.02 0)"/><path fill="#fff" fill-rule="evenodd" d="M13.64,34.77a70.13,70.13,0,0,0-.52,8.32c.09,3.45.58,7.51.58,7.51s-2.71.75-4.61-2.47-.66-9.91-.66-9.91-1.09.84-1.44,4a11.38,11.38,0,0,0,.35,4.89S5.58,45.68,5.7,41.39a7.57,7.57,0,0,1,2.9-6.11,3.92,3.92,0,0,1,2.45-2C12.9,32.78,13.76,33.53,13.64,34.77Z" transform="translate(0.02 0)"/><path fill="#fff" fill-rule="evenodd" d="M19.82,15.69A27.09,27.09,0,0,0,14.24,23c-2.43,4.61-2.58,8.18-2.13,7.23A48.34,48.34,0,0,1,16,22.08a24,24,0,0,1,4.22-5.14C21.34,15.92,20.53,15.07,19.82,15.69Z" transform="translate(0.02 0)"/><path fill="#fff" fill-rule="evenodd" d="M23,12.93c1.23-3.76,10.16-6.79,15.64-7.46,2.26-.28,5.53-.32,7.27,1.45.76.78.2,2.07-1.23,1.93h0A29.15,29.15,0,0,0,24,14.46C22.62,15.48,22.71,13.81,23,12.93Z" transform="translate(0.02 0)"/><path fill="#fff" fill-rule="evenodd" d="M27.42,48.63A3.9,3.9,0,0,1,30.91,46c2.7-.08,4.69,5.36,4.69,5.36Z" transform="translate(0.02 0)"/><path fill="#fff" fill-rule="evenodd" d="M62.6,30.66C51.22,12.72,21.94,16.75,17.31,37.6c-.59,2.66-1.2,5.86-1.3,5.81-.43-.23-.82-1.54-.55-4.78s.63-3.46.75-5.79-.92-3-.43-4.41,3.11-6.56,9.79-11.63C33,11.15,44.22,10.3,52.8,14.24a25.24,25.24,0,0,0-5.74-.75c-2.33.11-3.48,1.24-2.73,2.91s5.06,1.12,12.32,5.78C64.14,27,70.17,38.63,64.82,46.92,64.81,46.93,67.29,38.06,62.6,30.66Z" transform="translate(0.02 0)"/><path fill="#fff" fill-rule="evenodd" d="M76.3,45.47a10.92,10.92,0,0,0,.7-4.08,7.55,7.55,0,0,0-2.91-6.11s-.87-.17-.9,1a47.21,47.21,0,0,1,.29,5.7,31.9,31.9,0,0,1-.4,4.68L59.51,54.9s-.49,1,.72.72,11.63-4.38,12-4.58S75.69,48.07,76.3,45.47Z" transform="translate(0.02 0)"/><path fill="#fff" fill-rule="evenodd" d="M67.62,22.16c.15.27.29.56.42.84,2.19,4.61,2.16,8.18,1.76,7.23a61.68,61.68,0,0,0-2.25-5.84h0C67.52,24.31,66.62,21.93,67.62,22.16Z" transform="translate(0.02 0)"/><path fill="#fff" fill-rule="evenodd" d="M55.24,48.63A3.88,3.88,0,0,0,51.76,46c-2.71-.08-4.69,5.36-4.69,5.36Z" transform="translate(0.02 0)"/><path fill="#fff" fill-rule="evenodd" d="M73.05,46.65,59.51,54.9s-.49,1,.72.72,11.63-4.38,12-4.58A14.27,14.27,0,0,0,73.05,46.65Z" transform="translate(0.02 0)"/><path fill="#fff" fill-rule="evenodd" d="M11.05,33.33A4,4,0,0,0,8.7,35.1h0A29.37,29.37,0,0,0,8,38.82s-1.09,5.53,1.13,9.31C11,51.35,13.7,50.6,13.7,50.6s-.49-4.06-.58-7.51a70.13,70.13,0,0,1,.52-8.32C13.76,33.53,12.9,32.78,11.05,33.33Z" transform="translate(0.02 0)"/><path fill="#fff" fill-rule="evenodd" d="M24.79,29a16.19,16.19,0,0,0-5.42,11.17c-.63,7.55,1.9,11.7,2.48,12.16s1.27,1,1.73.8S20.93,50.06,21,42.52A29.33,29.33,0,0,1,24.79,29Z" transform="translate(0.02 0)"/></svg>
