<svg id="Layer_1" data-name="Layer 1" xmlns="http://www.w3.org/2000/svg" viewBox="0 0 207.47 79"><defs><style>.cls-1{fill:#fff;}</style></defs><path class="cls-1" d="M15.65,62.78a18.67,18.67,0,0,1-8-1.65,13.11,13.11,0,0,1-5.62-4.77A13.67,13.67,0,0,1,0,48.67a12.43,12.43,0,0,1,1.51-6.46,11.18,11.18,0,0,1,4.07-4A21.37,21.37,0,0,1,11.31,36a57.19,57.19,0,0,1,6.45-1.14l6.75-.8a9.78,9.78,0,0,0,3.77-1,2.55,2.55,0,0,0,1.18-2.35v-.22a8.18,8.18,0,0,0-2.22-6.12c-1.47-1.44-3.67-2.17-6.59-2.17a11.47,11.47,0,0,0-7.16,2,10.82,10.82,0,0,0-3.6,4.44L1.42,26.66a16.19,16.19,0,0,1,4.41-6.83A18,18,0,0,1,12.54,16a26.42,26.42,0,0,1,8-1.19,29.19,29.19,0,0,1,5.9.64,17.71,17.71,0,0,1,5.85,2.37,13.15,13.15,0,0,1,4.48,4.9A17.12,17.12,0,0,1,38.5,31V61.75H29.7V55.42h-.36a12.89,12.89,0,0,1-2.62,3.44,14,14,0,0,1-4.5,2.8A17.3,17.3,0,0,1,15.65,62.78Zm2-7.24A13,13,0,0,0,24,54.06a10.41,10.41,0,0,0,4.07-3.87,10.06,10.06,0,0,0,1.4-5.14v-6a4.56,4.56,0,0,1-1.86.89,25.3,25.3,0,0,1-3.12.69c-1.16.19-2.3.36-3.4.51l-2.78.38a21.61,21.61,0,0,0-4.78,1.12,8.18,8.18,0,0,0-3.43,2.24,5.66,5.66,0,0,0-1.29,3.88,5.74,5.74,0,0,0,2.48,5.05A10.91,10.91,0,0,0,17.61,55.54Z"/><path class="cls-1" d="M46.26,61.75V15.44H55V22.8h.49a11.21,11.21,0,0,1,4.47-5.9,12.76,12.76,0,0,1,7.29-2.16c.56,0,1.23,0,2,.07S70.6,14.9,71,15v8.62a17.1,17.1,0,0,0-1.92-.35A20,20,0,0,0,66.34,23a11.71,11.71,0,0,0-5.68,1.34,10,10,0,0,0-5.38,9.09V61.75Z"/><path class="cls-1" d="M74.64,61.75V0h9V61.75ZM82.93,46l-.06-11h1.57l18.45-19.6h10.8l-21,22.31H91.22Zm21,15.71-16.59-22,6.21-6.3L115,61.75Z"/><path class="cls-1" d="M123.58,79a19.86,19.86,0,0,1-3.68-.32,11.44,11.44,0,0,1-2.47-.68l2.17-7.38a10.58,10.58,0,0,0,6.23.16q2.52-.86,4.23-5.35l1.12-3.07-17-46.92h9.65l11.73,35.94h.49l11.72-35.94,9.74.09-19.14,52.4A20.44,20.44,0,0,1,135,74a13.4,13.4,0,0,1-4.88,3.74A15.93,15.93,0,0,1,123.58,79Z"/><path class="cls-1" d="M205.13,30.86a17.74,17.74,0,0,0-6.3-6.26A17,17,0,0,0,190,22.27,18.5,18.5,0,0,0,181,24.41a29.55,29.55,0,0,0-6.53,4.7,21.38,21.38,0,0,0-1.79,1.82c-.48.56-.93,1.13-1.37,1.71-.49-.58-1-1.17-1.51-1.75s-1.11-1.18-1.75-1.78A30.79,30.79,0,0,0,164,25.84a21.78,21.78,0,0,0-5-2.51l-2.87,7.85a10.65,10.65,0,0,1,1.67.72,18.81,18.81,0,0,1,4.37,3.21,23.16,23.16,0,0,1,2.16,2.28c.65.79,1.22,1.51,1.7,2.15-.46.69-1,1.41-1.63,2.17a26.44,26.44,0,0,1-2.23,2.39,20.79,20.79,0,0,1-4.43,3.19,10.89,10.89,0,0,1-5.22,1.27,9.35,9.35,0,0,1-2.61-.36l-2.86,7.85a17.75,17.75,0,0,0,5.47.83,19.08,19.08,0,0,0,6.29-1A23.49,23.49,0,0,0,164,53.37a30.35,30.35,0,0,0,4-3.15c.64-.65,1.22-1.27,1.75-1.87l1.54-1.78c.44.58.92,1.17,1.43,1.76s1.1,1.22,1.76,1.89a32.14,32.14,0,0,0,4.06,3.16,21.67,21.67,0,0,0,5.18,2.52,19.62,19.62,0,0,0,6.32,1,17.38,17.38,0,0,0,16.07-10.57,16.85,16.85,0,0,0,1.36-6.77A16.61,16.61,0,0,0,205.13,30.86ZM197.86,44.1a9.09,9.09,0,0,1-3.27,3.25A8.73,8.73,0,0,1,190,48.56a11.15,11.15,0,0,1-5.32-1.27,19.78,19.78,0,0,1-4.42-3.19c-.82-.83-1.55-1.62-2.17-2.37s-1.19-1.48-1.69-2.19c.3-.36.8-1,1.48-1.85a21.77,21.77,0,0,1,2.38-2.58,18.8,18.8,0,0,1,2.79-2.29,14.27,14.27,0,0,1,3.27-1.63,11.27,11.27,0,0,1,3.68-.6,8.64,8.64,0,0,1,4.55,1.22,9.2,9.2,0,0,1,3.27,3.26,8.45,8.45,0,0,1,1.23,4.47A8.71,8.71,0,0,1,197.86,44.1Z"/></svg>