<svg id="Layer_1" data-name="Layer 1" xmlns="http://www.w3.org/2000/svg" viewBox="0 0 60.41 34.61"><defs><style>.cls-1{fill:#fff;}</style></defs><path class="cls-1" d="M58.08,8.59a17.58,17.58,0,0,0-6.31-6.25A17,17,0,0,0,43,0a18.55,18.55,0,0,0-9.06,2.14,29.89,29.89,0,0,0-6.52,4.7,21.59,21.59,0,0,0-1.8,1.83c-.47.55-.93,1.12-1.37,1.7-.48-.58-1-1.16-1.51-1.75S21.62,7.45,21,6.84a31.66,31.66,0,0,0-4-3.27,21.43,21.43,0,0,0-5-2.5L9.09,8.91a11.57,11.57,0,0,1,1.66.72,19.18,19.18,0,0,1,4.37,3.21,23,23,0,0,1,2.16,2.28c.65.8,1.22,1.51,1.7,2.16-.46.68-1,1.4-1.62,2.17a26.61,26.61,0,0,1-2.24,2.38A20.35,20.35,0,0,1,10.69,25a11,11,0,0,1-5.21,1.26,9.62,9.62,0,0,1-2.61-.35L0,33.79a18.16,18.16,0,0,0,5.48.82,19,19,0,0,0,6.28-1,22.91,22.91,0,0,0,5.16-2.52,28.09,28.09,0,0,0,4-3.15c.65-.64,1.23-1.27,1.75-1.87s1-1.19,1.54-1.78c.44.59.92,1.17,1.43,1.77s1.1,1.22,1.77,1.88a31.33,31.33,0,0,0,4.05,3.17,22.3,22.3,0,0,0,5.19,2.51,19.29,19.29,0,0,0,6.31,1,17.11,17.11,0,0,0,6.79-1.34,17.42,17.42,0,0,0,9.29-9.22,17,17,0,0,0,1.35-6.77A16.74,16.74,0,0,0,58.08,8.59ZM50.81,21.83a9.2,9.2,0,0,1-3.27,3.26A8.88,8.88,0,0,1,43,26.29,11.26,11.26,0,0,1,37.66,25a19.54,19.54,0,0,1-4.41-3.2c-.83-.82-1.55-1.61-2.18-2.37S29.89,18,29.39,17.28q.45-.54,1.47-1.86a23.57,23.57,0,0,1,2.39-2.58A19.36,19.36,0,0,1,36,10.55a14.55,14.55,0,0,1,3.28-1.63A11.21,11.21,0,0,1,43,8.32a8.8,8.8,0,0,1,4.56,1.22,9.37,9.37,0,0,1,3.27,3.26A8.59,8.59,0,0,1,52,17.28,8.76,8.76,0,0,1,50.81,21.83Z"/></svg>